<?xml version="1.0" encoding="UTF-8" standalone="no"?>
<svg
   xmlns:dc="http://purl.org/dc/elements/1.1/"
   xmlns:cc="http://creativecommons.org/ns#"
   xmlns:rdf="http://www.w3.org/1999/02/22-rdf-syntax-ns#"
   xmlns:svg="http://www.w3.org/2000/svg"
   xmlns="http://www.w3.org/2000/svg"
   xmlns:sodipodi="http://sodipodi.sourceforge.net/DTD/sodipodi-0.dtd"
   xmlns:inkscape="http://www.inkscape.org/namespaces/inkscape"
   inkscape:version="1.0 (4035a4fb49, 2020-05-01)"
   sodipodi:docname="logo.svg"
   width="1000px"
   height="1000px"
   viewBox="0 0 1000 1000"
   version="1.1"
   id="SVGRoot">
  <sodipodi:namedview
     inkscape:current-layer="SVGRoot"
     inkscape:window-maximized="1"
     inkscape:window-y="0"
     inkscape:window-x="0"
     inkscape:cy="553.84275"
     inkscape:cx="509.76683"
     inkscape:zoom="0.58477731"
     showgrid="false"
     id="namedview999"
     inkscape:window-height="1012"
     inkscape:window-width="1920"
     inkscape:pageshadow="2"
     inkscape:pageopacity="0"
     guidetolerance="10"
     gridtolerance="10"
     objecttolerance="10"
     borderopacity="1"
     bordercolor="#666666"
     pagecolor="#ffffff" />
  <defs
     id="defs815" />
  <metadata
     id="metadata818">
    <rdf:RDF>
      <cc:Work
         rdf:about="">
        <dc:format>image/svg+xml</dc:format>
        <dc:type
           rdf:resource="http://purl.org/dc/dcmitype/StillImage" />
        <dc:title />
      </cc:Work>
    </rdf:RDF>
  </metadata>
  <g
     style="stroke-width:0.857654"
     transform="matrix(1.165971,0,0,1.165971,-82.985498,-82.985496)"
     id="layer1">
    <g
       aria-label="ð”¸"
       id="text11"
       style="font-weight:600;font-size:953.266px;line-height:1.25;font-family:Inconsolata;-inkscape-font-specification:'Inconsolata Semi-Bold';text-align:center;text-decoration:none;text-decoration-line:none;text-decoration-color:#000000;text-anchor:middle;fill:none;fill-rule:evenodd;stroke:#00b010;stroke-width:4.28826;stroke-linecap:round;stroke-linejoin:round;paint-order:markers fill stroke;stop-color:#000000">
      <path
         d="m 370.35583,737.36325 52.42963,-138.22357 c 4.76633,-12.39246 10.48592,-16.20552 33.36431,-16.20552 h 198.27932 l 58.14923,161.10195 c 13.34572,40.03717 -25.73818,36.22411 -70.54168,39.08391 -5.7196,5.71959 -5.7196,25.73818 0,31.45778 35.27084,-0.95327 87.70047,-1.90654 124.87784,-1.90654 39.08391,0 73.40148,0.95327 108.67232,1.90654 5.7196,-5.7196 5.7196,-25.73819 0,-31.45778 -37.17737,-2.8598 -68.63515,-2.8598 -85.79394,-52.42963 L 594.37334,214.02022 c -5.7196,-9.53266 -7.62613,-16.20552 -14.29899,-27.64471 -50.5231,0.95326 -121.06478,0.95326 -129.64418,-0.95327 -5.71959,7.62613 -8.57939,8.5794 -19.06532,34.31758 L 219.7398,715.43813 c -25.73818,59.10249 -54.33616,64.82209 -95.3266,67.68189 -5.71959,5.71959 -5.71959,25.73818 0,31.45778 35.27084,-0.95327 47.6633,-1.90654 84.84068,-1.90654 39.0839,0 191.60646,0.95327 226.8773,1.90654 5.7196,-5.7196 5.7196,-25.73819 0,-31.45778 -36.22411,-1.90653 -81.02761,-5.7196 -65.77535,-45.75677 z M 473.30856,542.89699 c -21.92512,0 -28.59798,-1.90653 -24.78492,-12.39246 L 544.8035,288.37497 h 1.90654 l 92.4668,254.52202 z M 508.5794,205.44083 h 45.75676 L 323.64579,784.07328 h -49.56983 z"
         style="font-style:normal;font-variant:normal;font-weight:normal;font-stretch:normal;font-family:Arial;-inkscape-font-specification:Arial;fill:#000000;fill-opacity:1;stroke:none;stroke-width:4.28826"
         id="path836" />
    </g>
  </g>
</svg>
